Land_normalized_precision_landing03_filtered_grf
version=1
nRows=22
nColumns=37
inDegrees=yes
endheader
time		1_ground_force_vx		1_ground_force_vy		1_ground_force_vz		1_ground_force_px		1_ground_force_py		1_ground_force_pz		1_ground_torque_x		1_ground_torque_y		1_ground_torque_z		2_ground_force_vx		2_ground_force_vy		2_ground_force_vz		2_ground_force_px		2_ground_force_py		2_ground_force_pz		2_ground_torque_x		2_ground_torque_y		2_ground_torque_z		3_ground_force_vx		3_ground_force_vy		3_ground_force_vz		3_ground_force_px		3_ground_force_py		3_ground_force_pz		3_ground_torque_x		3_ground_torque_y		3_ground_torque_z		4_ground_force_vx		4_ground_force_vy		4_ground_force_vz		4_ground_force_px		4_ground_force_py		4_ground_force_pz		4_ground_torque_x		4_ground_torque_y		4_ground_torque_z		
1.232000		-27.520610		846.647590		188.774862		0.125710		0.000000		0.286353		-0.452238		13.912719		3.102084		34.480212		891.038495		177.859423		-0.119057		0.000000		0.277343		1.426449		36.862334		7.358059		10.510389		-1.626125		-4.497552		0.381099		1.275651		1.884467		-0.014966		0.002315		0.006404		-3.311571		-0.734118		4.848611		-0.351715		1.268320		1.872735		0.009239		0.002048		-0.013527		
1.234652		-26.297366		844.975949		187.715747		0.125565		0.000000		0.286550		-0.439582		14.124525		3.137836		35.711182		902.707660		175.732005		-0.118959		0.000000		0.277987		1.447666		36.594263		7.123909		10.525576		-1.633101		-4.485450		0.381115		1.275646		1.884492		-0.017191		0.002667		0.007326		-3.319293		-0.793851		4.868437		-0.351704		1.268322		1.872776		0.008310		0.001987		-0.012188		
1.237303		-25.448267		840.669935		187.017121		0.125416		0.000000		0.286737		-0.432024		14.271704		3.174913		37.254429		914.236880		173.677551		-0.118922		0.000000		0.278635		1.481717		36.362039		6.907720		10.539355		-1.643620		-4.480503		0.381133		1.275639		1.884516		-0.018926		0.002951		0.008045		-3.328397		-0.835828		4.887065		-0.351686		1.268329		1.872801		0.008075		0.002028		-0.011856		
1.239955		-24.946761		834.106665		186.500196		0.125243		0.000000		0.286867		-0.429316		14.354383		3.209536		39.246664		925.232926		171.938284		-0.118972		0.000000		0.279255		1.536488		36.222491		6.731320		10.533608		-1.656535		-4.479505		0.381150		1.275631		1.884542		-0.019951		0.003138		0.008484		-3.344453		-0.839224		4.907191		-0.351659		1.268336		1.872812		0.008762		0.002199		-0.012857		
1.242606		-24.751871		825.854723		185.958881		0.125043		0.000000		0.286916		-0.430961		14.379133		3.237771		41.589766		935.313433		170.527783		-0.119098		0.000000		0.279832		1.608319		36.169651		6.594514		10.496551		-1.676499		-4.486648		0.381163		1.275624		1.884569		-0.020054		0.003203		0.008572		-3.369219		-0.795730		4.926650		-0.351632		1.268342		1.872811		0.010349		0.002444		-0.015133		
1.245258		-24.788164		816.665959		185.183193		0.124838		0.000000		0.286902		-0.436035		14.365515		3.257456		43.975826		944.166135		169.237202		-0.119261		0.000000		0.280375		1.683146		36.137483		6.477478		10.430065		-1.708893		-4.513473		0.381171		1.275617		1.884600		-0.019105		0.003131		0.008268		-3.400245		-0.712426		4.939407		-0.351607		1.268344		1.872805		0.012515		0.002621		-0.018180		
1.247909		-24.937601		807.350451		183.984143		0.124668		0.000000		0.286875		-0.443026		14.342876		3.268546		46.051278		951.558109		167.771501		-0.119415		0.000000		0.280898		1.744137		36.039193		6.354163		10.348868		-1.753563		-4.574402		0.381172		1.275614		1.884633		-0.017097		0.002897		0.007557		-3.432717		-0.607381		4.940153		-0.351589		1.268343		1.872803		0.014766		0.002612		-0.021250		
1.250561		-25.045768		798.666354		182.202834		0.124582		0.000000		0.286901		-0.449751		14.341799		3.271849		47.581929		957.310827		165.910501		-0.119544		0.000000		0.281419		1.779970		35.811624		6.206479		10.273188		-1.802212		-4.680565		0.381166		1.275612		1.884665		-0.014182		0.002488		0.006462		-3.461823		-0.502046		4.929832		-0.351582		1.268340		1.872808		0.016613		0.002410		-0.023657		
1.253212		-24.952573		791.203859		179.722486		0.124625		0.000000		0.287037		-0.453788		14.388832		3.268430		48.543203		961.287455		163.629965		-0.119657		0.000000		0.281945		1.789953		35.445988		6.033616		10.220276		-1.841149		-4.833388		0.381155		1.275611		1.884696		-0.010693		0.001926		0.005057		-3.485060		-0.412869		4.918779		-0.351582		1.268339		1.872824		0.017746		0.002102		-0.025046		
1.255864		-24.535801		785.264887		176.487712		0.124826		0.000000		0.287318		-0.453111		14.501768		3.259256		49.083758		963.382682		161.118418		-0.119796		0.000000		0.282471		1.782634		34.988352		5.851546		10.197725		-1.858589		-5.021057		0.381141		1.275610		1.884724		-0.007099		0.001293		0.003495		-3.503396		-0.345257		4.924320		-0.351591		1.268339		1.872849		0.018139		0.001788		-0.025495		
1.258515		-23.733051		780.840339		172.513401		0.125198		0.000000		0.287759		-0.446347		14.685264		3.244458		49.390402		963.483050		158.674544		-0.120002		0.000000		0.282981		1.769016		34.509086		5.683249		10.202003		-1.850997		-5.220947		0.381125		1.275608		1.884748		-0.003909		0.000709		0.002000		-3.519961		-0.294928		4.964026		-0.351603		1.268343		1.872879		0.018008		0.001509		-0.025397		
1.261167		-22.547404		777.626122		167.901320		0.125743		0.000000		0.288358		-0.432867		14.929090		3.223403		49.574950		961.472937		156.566455		-0.120306		0.000000		0.283459		1.756547		34.067069		5.547492		10.221137		-1.824813		-5.405124		0.381112		1.275606		1.884769		-0.001585		0.000283		0.000838		-3.537151		-0.254620		5.048409		-0.351616		1.268348		1.872910		0.017701		0.001274		-0.025263		
1.263818		-21.058388		775.082525		162.848596		0.126446		0.000000		0.289095		-0.413181		15.207902		3.195237		49.636083		957.318904		154.890446		-0.120708		0.000000		0.283896		1.746304		33.680549		5.449382		10.241223		-1.792402		-5.549313		0.381102		1.275604		1.884791		-0.000397		0.000070		0.000216		-3.554166		-0.221899		5.173776		-0.351625		1.268355		1.872936		0.017524		0.001094		-0.025509		
1.266470		-19.412705		772.620883		157.582536		0.127284		0.000000		0.289938		-0.389161		15.488569		3.159020		49.511192		951.048277		153.542431		-0.121193		0.000000		0.284303		1.734935		33.325950		5.380323		10.253396		-1.763811		-5.638837		0.381098		1.275604		1.884811		-0.000373		0.000064		0.000205		-3.567709		-0.202313		5.321171		-0.351629		1.268360		1.872955		0.017630		0.001000		-0.026296		
1.269121		-17.827635		769.736976		152.298328		0.128235		0.000000		0.290855		-0.364391		15.733314		3.112945		49.176372		942.784650		152.279831		-0.121738		0.000000		0.284704		1.719120		32.958117		5.323439		10.256229		-1.741399		-5.669979		0.381098		1.275604		1.884832		-0.001292		0.000220		0.000714		-3.575080		-0.205182		5.458551		-0.351630		1.268363		1.872968		0.018015		0.001034		-0.027506		
1.271773		-16.567665		766.155189		147.093515		0.129280		0.000000		0.291816		-0.343952		15.905832		3.053737		48.731648		932.808303		150.845619		-0.122333		0.000000		0.285133		1.699981		32.540591		5.262180		10.254756		-1.719014		-5.649521		0.381101		1.275607		1.884853		-0.002735		0.000458		0.001507		-3.577409		-0.234854		5.550889		-0.351626		1.268364		1.872978		0.018578		0.001220		-0.028826		
1.274424		-15.896978		761.889890		141.939219		0.130407		0.000000		0.292800		-0.333411		15.979288		2.976920		48.405163		921.500104		149.085109		-0.122985		0.000000		0.285627		1.684418		32.066653		5.187911		10.256113		-1.686924		-5.589607		0.381106		1.275612		1.884874		-0.004224		0.000695		0.002302		-3.579993		-0.285159		5.573787		-0.351622		1.268364		1.872988		0.019199		0.001529		-0.029892		
1.277076		-16.039507		757.238848		136.702378		0.131608		0.000000		0.293789		-0.337681		15.942211		2.878007		48.497243		909.313711		146.975115		-0.123714		0.000000		0.286214		1.683185		31.559407		5.101042		10.265249		-1.638237		-5.504094		0.381109		1.275618		1.884893		-0.005321		0.000849		0.002853		-3.590208		-0.339870		5.522324		-0.351619		1.268365		1.873000		0.019766		0.001871		-0.030403		
1.279727		-17.136842		752.731851		131.192928		0.132878		0.000000		0.294790		-0.359713		15.800387		2.753840		49.278055		896.751653		144.576950		-0.124540		0.000000		0.286914		1.706488		31.054329		5.006671		10.282204		-1.573363		-5.406780		0.381110		1.275624		1.884908		-0.005719		0.000875		0.003007		-3.614197		-0.379137		5.413044		-0.351619		1.268366		1.873016		0.020167		0.002116		-0.030205		
1.282379		-19.232536		749.001370		125.220549		0.134211		0.000000		0.295822		-0.399794		15.569959		2.603048		50.888581		884.311953		141.938455		-0.125466		0.000000		0.287739		1.759364		30.573223		4.907224		10.302047		-1.499843		-5.310643		0.381106		1.275630		1.884920		-0.005336		0.000777		0.002751		-3.653330		-0.389309		5.275487		-0.351622		1.268370		1.873036		0.020292		0.002162		-0.029303		
1.285030		-22.283563		746.637348		118.632017		0.135598		0.000000		0.296917		-0.455724		15.269692		2.426183		53.308489		872.454646		139.016878		-0.126468		0.000000		0.288690		1.839650		30.107992		4.797406		10.316541		-1.428168		-5.227650		0.381099		1.275632		1.884926		-0.004344		0.000602		0.002202		-3.702199		-0.370044		5.138944		-0.351629		1.268375		1.873056		0.020041		0.002003		-0.027819		
1.287682		-26.148787		746.032970		111.346970		0.137021		0.000000		0.298099		-0.522972		14.921052		2.227030		56.371131		861.586743		135.670831		-0.127500		0.000000		0.289770		1.938004		29.620909		4.664296		10.316373		-1.367078		-5.168089		0.381088		1.275631		1.884928		-0.003111		0.000412		0.001559		-3.748912		-0.336683		5.021558		-0.351638		1.268380		1.873070		0.019371		0.001740		-0.025947		
